<?xml version="1.0" encoding="UTF-8" standalone="no"?>
<!DOCTYPE svg PUBLIC "-//W3C//DTD SVG 1.1//EN"
 "http://www.w3.org/Graphics/SVG/1.1/DTD/svg11.dtd">
<!-- Generated by graphviz version 2.38.0 (20140413.2041)
 -->
<!-- Title: output Pages: 1 -->
<svg width="633pt" height="459pt"
 viewBox="0.00 0.00 633.00 459.00" xmlns="http://www.w3.org/2000/svg" xmlns:xlink="http://www.w3.org/1999/xlink">
<g id="graph0" class="graph" transform="scale(1 1) rotate(0) translate(4 455)">
<title>output</title>
<polygon fill="white" stroke="none" points="-4,4 -4,-455 629,-455 629,4 -4,4"/>
<!-- Legend -->
<g id="node1" class="node"><title>Legend</title>
<polygon fill="#e0e0e0" stroke="none" points="8.5,-396.5 8.5,-419.5 209.5,-419.5 209.5,-396.5 8.5,-396.5"/>
<polygon fill="none" stroke="black" points="8.5,-396.5 8.5,-419.5 209.5,-419.5 209.5,-396.5 8.5,-396.5"/>
<text text-anchor="start" x="93" y="-404.3" font-family="Times,serif" font-size="14.00">Layer</text>
<polygon fill="#88ffff" stroke="none" points="8.5,-358.5 8.5,-396.5 89.5,-396.5 89.5,-358.5 8.5,-358.5"/>
<polygon fill="none" stroke="black" points="8.5,-358.5 8.5,-396.5 89.5,-396.5 89.5,-358.5 8.5,-358.5"/>
<text text-anchor="start" x="12.5" y="-381.3" font-family="Times,serif" font-size="14.00"> Complexity </text>
<text text-anchor="start" x="15" y="-366.3" font-family="Times,serif" font-size="14.00"> (MFLOPs) </text>
<polygon fill="#ff88ff" stroke="none" points="89.5,-358.5 89.5,-396.5 164.5,-396.5 164.5,-358.5 89.5,-358.5"/>
<polygon fill="none" stroke="black" points="89.5,-358.5 89.5,-396.5 164.5,-396.5 164.5,-358.5 89.5,-358.5"/>
<text text-anchor="start" x="93.5" y="-381.3" font-family="Times,serif" font-size="14.00"> Bandwidth </text>
<text text-anchor="start" x="103" y="-366.3" font-family="Times,serif" font-size="14.00"> (MB/s) </text>
<polygon fill="#ffff88" stroke="none" points="164.5,-358.5 164.5,-396.5 209.5,-396.5 209.5,-358.5 164.5,-358.5"/>
<polygon fill="none" stroke="black" points="164.5,-358.5 164.5,-396.5 209.5,-396.5 209.5,-358.5 164.5,-358.5"/>
<text text-anchor="start" x="168.5" y="-381.3" font-family="Times,serif" font-size="14.00"> Time </text>
<text text-anchor="start" x="172" y="-366.3" font-family="Times,serif" font-size="14.00"> (ms)</text>
</g>
<!-- Input -->
<g id="node2" class="node"><title>Input</title>
<ellipse fill="none" stroke="black" cx="320.5" cy="-389.5" rx="85.2851" ry="18"/>
<text text-anchor="middle" x="320.5" y="-385.8" font-family="Times,serif" font-size="14.00">input: (1, 56, 56, 64)</text>
</g>
<!-- InceptionV1/InceptionV1/Conv2d_2c_3x3/Relu -->
<g id="node3" class="node"><title>InceptionV1/InceptionV1/Conv2d_2c_3x3/Relu</title>
<polygon fill="#a3a3a3" stroke="none" points="185.5,-265 185.5,-288 455.5,-288 455.5,-265 185.5,-265"/>
<polygon fill="none" stroke="black" points="185.5,-265 185.5,-288 455.5,-288 455.5,-265 185.5,-265"/>
<text text-anchor="start" x="189.5" y="-272.8" font-family="Times,serif" font-size="14.00">InceptionV1/InceptionV1/Conv2d_2c_3x3/Relu</text>
<polygon fill="#dddddd" stroke="none" points="185.5,-242 185.5,-265 455.5,-265 455.5,-242 185.5,-242"/>
<polygon fill="none" stroke="black" points="185.5,-242 185.5,-265 455.5,-265 455.5,-242 185.5,-242"/>
<text text-anchor="start" x="284.5" y="-249.8" font-family="Times,serif" font-size="14.00">(192, 56, 56)</text>
<polygon fill="#ffffff" stroke="none" points="185.5,-204 185.5,-242 305.5,-242 305.5,-204 185.5,-204"/>
<polygon fill="none" stroke="black" points="185.5,-204 185.5,-242 305.5,-242 305.5,-204 185.5,-204"/>
<text text-anchor="start" x="209" y="-226.8" font-family="Times,serif" font-size="14.00"> 693.633024 </text>
<text text-anchor="start" x="211.5" y="-211.8" font-family="Times,serif" font-size="14.00"> (MFLOPs) </text>
<polygon fill="#ffffff" stroke="none" points="305.5,-204 305.5,-242 381.5,-242 381.5,-204 305.5,-204"/>
<polygon fill="none" stroke="black" points="305.5,-204 305.5,-242 381.5,-242 381.5,-204 305.5,-204"/>
<text text-anchor="start" x="324" y="-226.8" font-family="Times,serif" font-size="14.00"> 34.93 </text>
<text text-anchor="start" x="319.5" y="-211.8" font-family="Times,serif" font-size="14.00"> (MB/s) </text>
<polygon fill="#ffff00" stroke="none" points="381.5,-204 381.5,-242 455.5,-242 455.5,-204 381.5,-204"/>
<polygon fill="none" stroke="black" points="381.5,-204 381.5,-242 455.5,-242 455.5,-204 381.5,-204"/>
<text text-anchor="start" x="395.5" y="-226.8" font-family="Times,serif" font-size="14.00"> 104.76 </text>
<text text-anchor="start" x="403.5" y="-211.8" font-family="Times,serif" font-size="14.00"> (ms)</text>
</g>
<!-- Input&#45;&gt;InceptionV1/InceptionV1/Conv2d_2c_3x3/Relu -->
<g id="edge1" class="edge"><title>Input&#45;&gt;InceptionV1/InceptionV1/Conv2d_2c_3x3/Relu</title>
<path fill="none" stroke="black" d="M320.5,-371.432C320.5,-354.247 320.5,-326.812 320.5,-302.07"/>
<polygon fill="black" stroke="black" points="324,-302.031 320.5,-292.031 317,-302.031 324,-302.031"/>
</g>
<!-- InceptionV1/InceptionV1/MaxPool_3a_3x3/MaxPool -->
<g id="node4" class="node"><title>InceptionV1/InceptionV1/MaxPool_3a_3x3/MaxPool</title>
<polygon fill="#a3a3a3" stroke="none" points="169.5,-137 169.5,-160 471.5,-160 471.5,-137 169.5,-137"/>
<polygon fill="none" stroke="black" points="169.5,-137 169.5,-160 471.5,-160 471.5,-137 169.5,-137"/>
<text text-anchor="start" x="173.5" y="-144.8" font-family="Times,serif" font-size="14.00">InceptionV1/InceptionV1/MaxPool_3a_3x3/MaxPool</text>
<polygon fill="#dddddd" stroke="none" points="169.5,-114 169.5,-137 471.5,-137 471.5,-114 169.5,-114"/>
<polygon fill="none" stroke="black" points="169.5,-114 169.5,-137 471.5,-137 471.5,-114 169.5,-114"/>
<text text-anchor="start" x="284.5" y="-121.8" font-family="Times,serif" font-size="14.00">(192, 28, 28)</text>
<polygon fill="#ffffff" stroke="none" points="169.5,-76 169.5,-114 310.5,-114 310.5,-76 169.5,-76"/>
<polygon fill="none" stroke="black" points="169.5,-76 169.5,-114 310.5,-114 310.5,-76 169.5,-76"/>
<text text-anchor="start" x="210.5" y="-98.8" font-family="Times,serif" font-size="14.00"> 1.354752 </text>
<text text-anchor="start" x="206" y="-83.8" font-family="Times,serif" font-size="14.00"> (MFLOPs) </text>
<polygon fill="#ffffff" stroke="none" points="310.5,-76 310.5,-114 398.5,-114 398.5,-76 310.5,-76"/>
<polygon fill="none" stroke="black" points="310.5,-76 310.5,-114 398.5,-114 398.5,-76 310.5,-76"/>
<text text-anchor="start" x="331.5" y="-98.8" font-family="Times,serif" font-size="14.00"> 699.67 </text>
<text text-anchor="start" x="330.5" y="-83.8" font-family="Times,serif" font-size="14.00"> (MB/s) </text>
<polygon fill="#ffffcc" stroke="none" points="398.5,-76 398.5,-114 471.5,-114 471.5,-76 398.5,-76"/>
<polygon fill="none" stroke="black" points="398.5,-76 398.5,-114 471.5,-114 471.5,-76 398.5,-76"/>
<text text-anchor="start" x="419" y="-98.8" font-family="Times,serif" font-size="14.00"> 1.64 </text>
<text text-anchor="start" x="420" y="-83.8" font-family="Times,serif" font-size="14.00"> (ms)</text>
</g>
<!-- InceptionV1/InceptionV1/Conv2d_2c_3x3/Relu&#45;&gt;InceptionV1/InceptionV1/MaxPool_3a_3x3/MaxPool -->
<g id="edge2" class="edge"><title>InceptionV1/InceptionV1/Conv2d_2c_3x3/Relu&#45;&gt;InceptionV1/InceptionV1/MaxPool_3a_3x3/MaxPool</title>
<path fill="none" stroke="black" d="M320.5,-199.867C320.5,-191.634 320.5,-182.957 320.5,-174.465"/>
<polygon fill="black" stroke="black" points="324,-174.241 320.5,-164.241 317,-174.241 324,-174.241"/>
</g>
<!-- Output -->
<g id="node5" class="node"><title>Output</title>
<ellipse fill="none" stroke="black" cx="320.5" cy="-18" rx="84.485" ry="18"/>
<text text-anchor="middle" x="320.5" y="-14.3" font-family="Times,serif" font-size="14.00">output: [28, 28, 192]</text>
</g>
<!-- InceptionV1/InceptionV1/MaxPool_3a_3x3/MaxPool&#45;&gt;Output -->
<g id="edge3" class="edge"><title>InceptionV1/InceptionV1/MaxPool_3a_3x3/MaxPool&#45;&gt;Output</title>
<path fill="none" stroke="black" d="M320.5,-71.7292C320.5,-63.0404 320.5,-54.1943 320.5,-46.2922"/>
<polygon fill="black" stroke="black" points="324,-46.2052 320.5,-36.2053 317,-46.2053 324,-46.2052"/>
</g>
<!-- Summary -->
<g id="node6" class="node"><title>Summary</title>
<polygon fill="#c60000" stroke="none" points="432.5,-423.5 432.5,-446.5 617.5,-446.5 617.5,-423.5 432.5,-423.5"/>
<polygon fill="none" stroke="black" points="432.5,-423.5 432.5,-446.5 617.5,-446.5 617.5,-423.5 432.5,-423.5"/>
<text text-anchor="start" x="497.5" y="-431.3" font-family="Times,serif" font-size="14.00">Summary</text>
<polygon fill="#e2e2e2" stroke="none" points="432.5,-400.5 432.5,-423.5 617.5,-423.5 617.5,-400.5 432.5,-400.5"/>
<polygon fill="none" stroke="black" points="432.5,-400.5 432.5,-423.5 617.5,-423.5 617.5,-400.5 432.5,-400.5"/>
<text text-anchor="start" x="475" y="-408.3" font-family="Times,serif" font-size="14.00">1 SHV Processors</text>
<polygon fill="#dadada" stroke="none" points="432.5,-377.5 432.5,-400.5 617.5,-400.5 617.5,-377.5 432.5,-377.5"/>
<polygon fill="none" stroke="black" points="432.5,-377.5 432.5,-400.5 617.5,-400.5 617.5,-377.5 432.5,-377.5"/>
<text text-anchor="start" x="454" y="-385.3" font-family="Times,serif" font-size="14.00">Inference time 106.40 ms</text>
<polygon fill="#e2e2e2" stroke="none" points="432.5,-354.5 432.5,-377.5 617.5,-377.5 617.5,-354.5 432.5,-354.5"/>
<polygon fill="none" stroke="black" points="432.5,-354.5 432.5,-377.5 617.5,-377.5 617.5,-354.5 432.5,-354.5"/>
<text text-anchor="start" x="454.5" y="-362.3" font-family="Times,serif" font-size="14.00">Bandwidth 45.19 MB/sec</text>
<polygon fill="#dadada" stroke="none" points="432.5,-331.5 432.5,-354.5 617.5,-354.5 617.5,-331.5 432.5,-331.5"/>
<polygon fill="none" stroke="black" points="432.5,-331.5 432.5,-354.5 617.5,-354.5 617.5,-331.5 432.5,-331.5"/>
<text text-anchor="start" x="436.5" y="-339.3" font-family="Times,serif" font-size="14.00">This network is Compute bound</text>
</g>
</g>
</svg>
